# xmcd
#
# Track frame offsets:
#	150
#	13392
#	29337
#	45442
#	58947
#	71937
#	90422
#	103217
#	116052
#	130977
#	145152
#
# Disc length: 2116 seconds
#
# Revision: 0
# Processed by: cddbd v1.4PL0 Copyright (c) Steve Scherf et al.
# Submitted via: dBpowerAMP V4.0
#
DISCID=a308420b
DTITLE=Merle Haggard - The Way I Am
DYEAR=1900
DGENRE=Country
TTITLE0=The Way I Am
TTITLE1=Sky-Bo
TTITLE2=No One To Sing For (But The Band)
TTITLE3=(Remember Me) I'm The One Who Loves You
TTITLE4=Life's Just Not The Way It Used To Be
TTITLE5=Wake Up
TTITLE6=Where Have You Been
TTITLE7=Take Me Back And Try Me One More Time
TTITLE8=I'll Always Be Glad To Take You Back
TTITLE9=It Makes No Difference Now
TTITLE10=It's Been So Long Darlin'
EXTD=
EXTT0=
EXTT1=
EXTT2=
EXTT3=
EXTT4=
EXTT5=
EXTT6=
EXTT7=
EXTT8=
EXTT9=
EXTT10=
PLAYORDER=
